<svg width="125" height="102" viewBox="0 0 125 102" fill="none" xmlns="http://www.w3.org/2000/svg">
<g filter="url(#filter0_f_19_14)">
<path d="M104.238 35.5328C146.238 60.5328 80.2287 86.9808 80.2287 86.9808L22 49.1048C22 49.1048 62.2379 10.5328 104.238 35.5328Z" fill="#95A187" fill-opacity="0.16"/>
</g>
<path d="M51.2677 45.2757C111.469 42.8318 58.3188 99.0349 58.3188 99.0349L3.79191 67.0323C3.79191 67.0323 -8.93335 47.7195 51.2677 45.2757Z" fill="#64ABB7"/>
<path d="M87 83.6048L58 99.4239L60 91.9239C60 91.9239 61.1987 87.6023 62 84.9238C62.9041 81.9016 64.5 77.4238 64.5 77.4238C64.5 77.4238 66.7002 72.4234 67 71.9238C67.2997 71.4243 70 67.4238 71.5 65.4238C72.9997 63.4241 74.4995 61.9243 75.4995 60.9243L75.5 60.9238C76.5 59.9238 78 58.9238 79 58.4238C80 57.9239 81.7448 57.6721 82.5 57.9238C83.2551 58.1755 84.5 58.9238 85.5 60.9238C86.5 62.9238 87 64.4238 87 64.9238C87 65.4238 85.5 69.4239 85.5 71.9238V79.1048C85.5 80.6048 87 83.6048 87 83.6048Z" fill="#5A9CA7"/>
<g filter="url(#filter1_f_19_14)">
<path d="M87 79.1048C86.7722 80.8575 86.517 83.6048 86.517 83.6048L85.5 84.1048C85.5 84.1048 85.2668 83.5627 85 82.6048C84.7332 81.6469 85.0939 81.5947 85 80.6048C84.9078 79.6328 84.517 78.5811 84.517 77.6048V74.6048C84.517 73.238 84.017 71.616 84.017 71.616C84.017 70.6397 84.1551 70.0825 84.017 69.116C83.8424 67.8934 83.9101 67.2368 83.517 66.116C83.228 65.292 82.9076 64.897 82.517 64.116C82.1265 63.3349 81.9724 62.8611 81.517 62.116C81.0079 61.2829 80.5773 60.9155 80.017 60.116C79.613 59.5394 79.1044 59.3146 79.017 58.616C78.9087 57.7495 79.3258 57.1496 80.017 56.616C80.6543 56.124 81.2129 56.1543 82.017 56.116C83.0116 56.0686 83.6319 56.16 84.517 56.616C85.499 57.1218 85.8356 57.7466 86.517 58.616C86.9513 59.1701 87.2248 59.4755 87.517 60.116C87.8513 60.8484 88.017 61.616 88.017 62.116C88.017 62.616 88.0092 64.9106 88.017 66.116C88.017 66.116 88.0501 67.3245 88.017 68.1048C87.9501 69.6828 88.1175 69.5286 88.017 71.1048C87.9179 72.6594 87.517 75.6048 87.517 75.6048C87.517 75.6048 87.178 77.7346 87 79.1048Z" fill="#4B7E86"/>
</g>
<g filter="url(#filter2_f_19_14)">
<ellipse cx="67.5" cy="74.6048" rx="3.5" ry="4.5" fill="#3F6656"/>
</g>
<path d="M86.5 57.1048C88.0059 58.8822 88 62.6048 88 62.6048C88 62.6048 87.3331 61.1441 86.5 60.6839C85.6036 60.1887 84.663 60.4466 83.884 60.5031C82.9102 60.5737 82.3536 60.5238 81.3905 60.6839C79.8022 60.9479 78.9488 61.0229 77.5 61.6048C75.7906 62.2914 74.9227 62.9346 73.5 64.1048C72.4336 64.9819 71.8952 65.5536 71 66.6048C69.91 67.8847 69.4305 68.7116 68.5407 70.138C67.7954 71.3327 66.7629 73.2748 66.7629 73.2748L64.5 77.6048C64.5 77.6048 59.6156 73.4801 56.0734 71.0421C51.6014 67.9641 48.7383 66.7367 44.4874 63.3599C40.9181 60.5246 39.0482 58.7514 35.8936 55.4608C34.3529 53.8536 32.0773 51.2257 32.0773 51.2257C32.0773 51.2257 36.5511 50.0343 39.4854 49.6859C41.0365 49.5017 41.9169 49.5096 43.4749 49.3966C46.0066 49.213 47.4196 48.9548 49.9579 48.9265C52.9125 48.8935 54.5651 49.1457 57.5105 49.3814C60.8705 49.6502 62.7517 49.8473 66.0968 50.2627C69.6698 50.7064 68.0268 47.1561 71.5 48.1048C74.1969 48.8415 79.995 52.0677 82 53.6048C83.5954 54.8279 85.6213 56.0677 86.5 57.1048Z" fill="#64ABB7"/>
<g filter="url(#filter3_f_19_14)">
<ellipse cx="78.5" cy="70.6048" rx="3.5" ry="4.5" fill="#3F6656"/>
</g>
<defs>
<filter id="filter0_f_19_14" x="21" y="26.1034" width="98.2198" height="61.8774" filterUnits="userSpaceOnUse" color-interpolation-filters="sRGB">
<feFlood flood-opacity="0" result="BackgroundImageFix"/>
<feBlend mode="normal" in="SourceGraphic" in2="BackgroundImageFix" result="shape"/>
<feGaussianBlur stdDeviation="0.5" result="effect1_foregroundBlur_19_14"/>
</filter>
<filter id="filter1_f_19_14" x="78" y="55.1048" width="11.05" height="30" filterUnits="userSpaceOnUse" color-interpolation-filters="sRGB">
<feFlood flood-opacity="0" result="BackgroundImageFix"/>
<feBlend mode="normal" in="SourceGraphic" in2="BackgroundImageFix" result="shape"/>
<feGaussianBlur stdDeviation="0.5" result="effect1_foregroundBlur_19_14"/>
</filter>
<filter id="filter2_f_19_14" x="63" y="69.1048" width="9" height="11" filterUnits="userSpaceOnUse" color-interpolation-filters="sRGB">
<feFlood flood-opacity="0" result="BackgroundImageFix"/>
<feBlend mode="normal" in="SourceGraphic" in2="BackgroundImageFix" result="shape"/>
<feGaussianBlur stdDeviation="0.5" result="effect1_foregroundBlur_19_14"/>
</filter>
<filter id="filter3_f_19_14" x="74" y="65.1048" width="9" height="11" filterUnits="userSpaceOnUse" color-interpolation-filters="sRGB">
<feFlood flood-opacity="0" result="BackgroundImageFix"/>
<feBlend mode="normal" in="SourceGraphic" in2="BackgroundImageFix" result="shape"/>
<feGaussianBlur stdDeviation="0.5" result="effect1_foregroundBlur_19_14"/>
</filter>
</defs>
</svg>
