<svg width="98" height="72" viewBox="0 0 98 72" fill="none" xmlns="http://www.w3.org/2000/svg">
<g filter="url(#filter0_f_5_32)">
<path d="M91 21.5C101.5 31 74.7633 48.8139 74.7633 48.8139L49.5 20.5C49.5 20.5 80.5 12 91 21.5Z" fill="#95A187" fill-opacity="0.16"/>
</g>
<path d="M53.2011 17.921C90.201 39.921 43.4518 66.7269 43.4518 66.7269L0.847191 42.7738C0.847191 42.7738 16.2012 -4.07901 53.2011 17.921Z" fill="#56643F"/>
<path d="M48.2335 24.4373C66.2774 16.6068 74.9432 48.921 74.9432 48.921L43.2748 66.8655C43.2748 66.8655 30.1896 32.2678 48.2335 24.4373Z" fill="#56643F"/>
<path d="M50.7083 29.0989C65.7183 22.585 73.2871 49.4936 73.2871 49.4936L46.9432 64.421C46.9432 64.421 35.6982 35.6128 50.7083 29.0989Z" fill="#567246"/>
<path d="M54.407 33.8447C66.5414 28.5644 72.4432 49.921 72.4432 49.921L51.1197 61.9597C51.1197 61.9597 42.2727 39.125 54.407 33.8447Z" fill="#56643F"/>
<path d="M56.2468 37.4608C66.5039 32.9974 71.0505 50.7231 71.0505 50.7231L53.0258 60.8994C53.0258 60.8994 45.9896 41.9242 56.2468 37.4608Z" fill="#567246"/>
<path d="M57.9005 42.4572C65.2497 39.2592 68.5073 51.9597 68.5073 51.9597L55.5927 59.251C55.5927 59.251 50.5512 45.6553 57.9005 42.4572Z" fill="#56643F"/>
<defs>
<filter id="filter0_f_5_32" x="48.5" y="16.002" width="45.9437" height="33.8119" filterUnits="userSpaceOnUse" color-interpolation-filters="sRGB">
<feFlood flood-opacity="0" result="BackgroundImageFix"/>
<feBlend mode="normal" in="SourceGraphic" in2="BackgroundImageFix" result="shape"/>
<feGaussianBlur stdDeviation="0.5" result="effect1_foregroundBlur_5_32"/>
</filter>
</defs>
</svg>
