<svg width="139" height="80" viewBox="0 0 139 80" fill="none" xmlns="http://www.w3.org/2000/svg">
<g filter="url(#filter0_f_19_31)">
<path d="M138 30L99 54.5L38 26.5L85.5 1L138 30Z" fill="#95A187" fill-opacity="0.16"/>
</g>
<path d="M99 54.5L41.5 24.5L23 7L78.5 36.5L99 54.5Z" fill="#7D3A36"/>
<path d="M70 69.5L15 41L23 7L79.5 36.5L70 69.5Z" fill="#924540"/>
<path d="M69.6315 69.7666L79.1315 36.2666L99 54.5L69.6315 69.7666Z" fill="#7D3A36"/>
<path d="M87.8153 60.2707L80.841 63.9727C78.0307 60.2818 81.2867 45.2351 82.8161 45.6286C82.8161 45.6286 87.536 55.417 87.8153 60.2707Z" fill="#4F2320"/>
<path d="M78.1857 63.8354L80.3344 65.0399C80.3344 65.0399 79.8763 58.8694 80.3036 55.1193C80.7772 50.9621 82.9854 44.8769 82.9854 44.8769L82.2166 44.6763C77.9841 52.4756 77.7366 58.4401 78.1857 63.8354Z" fill="#C19340"/>
<path d="M88.6413 61.0332L87.4684 60.5921C87.4684 60.5921 87.2871 56.1666 85.8676 52.6576C84.8093 50.0412 82.676 45.2021 82.676 45.2021L81.9582 44.7069L82.9536 44.7629C87.289 50.748 88.9091 56.0688 88.6413 61.0332Z" fill="#C19340"/>
<path d="M88.3694 61.0655C88.7646 56.0565 84.922 47.9942 82.9512 44.5891C82.9512 44.5891 90.0344 52.82 89.6855 60.3046L88.3694 61.0655Z" fill="#B1873B"/>
<path d="M81.7101 64.3093C80.0374 58.8345 81.8406 48.8813 82.9512 44.5891C82.9512 44.5891 78.2585 56.7762 80.5154 65.0184L81.7101 64.3093Z" fill="#B1873B"/>
<path d="M79.5 36.5L57 80C57 80 57 58.6424 36.5 47.7152C16 36.7881 0 49.702 0 49.702L21.5 5L79.5 36.5Z" fill="#F8C66C"/>
<defs>
<filter id="filter0_f_19_31" x="37" y="0" width="102" height="55.5" filterUnits="userSpaceOnUse" color-interpolation-filters="sRGB">
<feFlood flood-opacity="0" result="BackgroundImageFix"/>
<feBlend mode="normal" in="SourceGraphic" in2="BackgroundImageFix" result="shape"/>
<feGaussianBlur stdDeviation="0.5" result="effect1_foregroundBlur_19_31"/>
</filter>
</defs>
</svg>
