<svg width="134" height="98" viewBox="0 0 134 98" fill="none" xmlns="http://www.w3.org/2000/svg">
<g filter="url(#filter0_f_3_31)">
<path d="M92 72L32.5 38.5L132.5 18L92 72Z" fill="#95A187" fill-opacity="0.16"/>
</g>
<path d="M22 57L25 72V62.5L22 49.5V57Z" fill="#96A093"/>
<path d="M25 72V62.5L46 72.5V82L25 72Z" fill="#869185"/>
<path d="M73 82H46V72.5H73V82Z" fill="#7D8378"/>
<path d="M92 72.0476L73 82V72.0476L92 63V72.0476Z" fill="#6E786D"/>
<path d="M58.5 1L22 49L24 62M58.5 1L24 62M58.5 1L46.5 72.5M58.5 1L72.5 72.5M58.5 1L93 62M58.5 1L90 45L93 62M24 62L46.5 72.5M46.5 72.5H72.5M72.5 72.5L93 62" stroke="#7E887D"/>
<path d="M58.5 1L93 62L90 45L58.5 1Z" fill="#707467"/>
<path d="M58.5 1L72.5 72.5L93 62L58.5 1Z" fill="#727B73"/>
<path d="M58.5 1L46.5 72.5H72.5L58.5 1Z" fill="#7E887D"/>
<path d="M58.5 1L24 62L46.5 72.5L58.5 1Z" fill="#889287"/>
<path d="M22 49L58.5 1L24 62L22 49Z" fill="#96A094"/>
<path d="M53.9375 7L58.5 1L62.4375 6.5L62.8125 8.625L60.25 9.9375H57L54.1875 8.625L53.9375 7Z" fill="#4F5E4C"/>
<path d="M90.5 73L77 80C77 80 77.9763 73.5915 77 65C76.0237 56.4085 71 32.5 71 32.5L85 62.5C88.4171 69.8223 90.5 73 90.5 73Z" fill="#3E4A3B"/>
<line x1="28.1768" y1="40.1768" x2="0.176777" y2="68.1768" stroke="#889287" stroke-width="0.5"/>
<line x1="31.2274" y1="49.1039" x2="15.2274" y2="84.1039" stroke="#889287" stroke-width="0.5"/>
<line x1="49.2489" y1="54.0232" x2="45.2489" y2="97.0232" stroke="#889287" stroke-width="0.5"/>
<line x1="68.2356" y1="52.9162" x2="84.2355" y2="97.9162" stroke="#889287" stroke-width="0.5"/>
<line x1="86.2027" y1="49.8536" x2="112.203" y2="85.8536" stroke="#889287" stroke-width="0.5"/>
<defs>
<filter id="filter0_f_3_31" x="31.5" y="17" width="102" height="56" filterUnits="userSpaceOnUse" color-interpolation-filters="sRGB">
<feFlood flood-opacity="0" result="BackgroundImageFix"/>
<feBlend mode="normal" in="SourceGraphic" in2="BackgroundImageFix" result="shape"/>
<feGaussianBlur stdDeviation="0.5" result="effect1_foregroundBlur_3_31"/>
</filter>
</defs>
</svg>
