<svg width="123" height="85" viewBox="0 0 123 85" fill="none" xmlns="http://www.w3.org/2000/svg">
<path d="M122.5 40L50 83.5L3 61L74.8881 19L122.5 40Z" fill="#95A187" fill-opacity="0.16"/>
<path d="M3 62L2.5 38L46.5 60V85L3 62Z" fill="#84756A"/>
<path d="M67 23.5L18 6L36.189 21.8734L84 44L67 23.5Z" fill="#958D80"/>
<path d="M82.5 64L46.5 85V60.5L67 25L82.5 43.235V64Z" fill="#6E6559"/>
<path d="M67 23.5L18 0L0.5 37L47 60.5L67 23.5Z" fill="#968E82"/>
<path d="M65.7572 40.4287C66.1658 40.1836 66.5307 40.0797 66.8581 40.0728C67.184 40.0658 67.5046 40.1541 67.8278 40.3429C68.4916 40.7306 69.1476 41.5321 69.774 42.7111C71.0205 45.0577 72.0162 48.638 72.7873 52.4126C73.5557 56.1743 74.0919 60.0806 74.4359 63.0497C74.6079 64.5335 74.7317 65.7815 74.8125 66.6582C74.8529 67.0965 74.8825 67.4419 74.902 67.6774C74.9034 67.6946 74.9048 67.7112 74.9061 67.7272L61.3617 75.667C61.3483 75.4964 61.3332 75.2999 61.3168 75.0793C61.2516 74.1987 61.1667 72.9349 61.0882 71.4041C60.9312 68.3414 60.7999 64.2141 60.9021 59.9495C61.0044 55.6804 61.3402 51.2945 62.1107 47.7065C62.4959 45.9124 62.9861 44.3359 63.5996 43.0798C64.2153 41.819 64.9352 40.922 65.7572 40.4287Z" fill="#2A1D2F" stroke="#889287"/>
</svg>
