<svg width="1512" height="608" viewBox="0 0 1512 608" fill="none" xmlns="http://www.w3.org/2000/svg">
<rect width="1512" height="608" fill="#000E1F"/>
<path d="M1069 125L1071.92 133.983H1081.36L1073.72 139.534L1076.64 148.517L1069 142.966L1061.36 148.517L1064.28 139.534L1056.64 133.983H1066.08L1069 125Z" fill="white"/>
<path d="M657 10L659.919 18.9828H669.364L661.723 24.5344L664.641 33.5172L657 27.9656L649.359 33.5172L652.277 24.5344L644.636 18.9828H654.081L657 10Z" fill="white"/>
<path d="M896 36L898.919 44.9828H908.364L900.723 50.5344L903.641 59.5172L896 53.9656L888.359 59.5172L891.277 50.5344L883.636 44.9828H893.081L896 36Z" fill="white"/>
<path d="M588 347L590.919 355.983H600.364L592.723 361.534L595.641 370.517L588 364.966L580.359 370.517L583.277 361.534L575.636 355.983H585.081L588 347Z" fill="white"/>
<path d="M1144 560L1146.92 568.983H1156.36L1148.72 574.534L1151.64 583.517L1144 577.966L1136.36 583.517L1139.28 574.534L1131.64 568.983H1141.08L1144 560Z" fill="white"/>
<path d="M1466 526L1468.92 534.983H1478.36L1470.72 540.534L1473.64 549.517L1466 543.966L1458.36 549.517L1461.28 540.534L1453.64 534.983H1463.08L1466 526Z" fill="white"/>
<path d="M1272 199L1274.92 207.983H1284.36L1276.72 213.534L1279.64 222.517L1272 216.966L1264.36 222.517L1267.28 213.534L1259.64 207.983H1269.08L1272 199Z" fill="white"/>
<path d="M1095 327L1097.92 335.983H1107.36L1099.72 341.534L1102.64 350.517L1095 344.966L1087.36 350.517L1090.28 341.534L1082.64 335.983H1092.08L1095 327Z" fill="white"/>
<path d="M1298 420L1300.92 428.983H1310.36L1302.72 434.534L1305.64 443.517L1298 437.966L1290.36 443.517L1293.28 434.534L1285.64 428.983H1295.08L1298 420Z" fill="white"/>
<path d="M1440 260L1442.92 268.983H1452.36L1444.72 274.534L1447.64 283.517L1440 277.966L1432.36 283.517L1435.28 274.534L1427.64 268.983H1437.08L1440 260Z" fill="white"/>
<path d="M55 125L57.9187 133.983H67.3637L59.7225 139.534L62.6412 148.517L55 142.966L47.3588 148.517L50.2775 139.534L42.6363 133.983H52.0813L55 125Z" fill="white"/>
<path d="M130 560L132.919 568.983H142.364L134.723 574.534L137.641 583.517L130 577.966L122.359 583.517L125.277 574.534L117.636 568.983H127.081L130 560Z" fill="white"/>
<path d="M452 526L454.919 534.983H464.364L456.723 540.534L459.641 549.517L452 543.966L444.359 549.517L447.277 540.534L439.636 534.983H449.081L452 526Z" fill="white"/>
<path d="M258 199L260.919 207.983H270.364L262.723 213.534L265.641 222.517L258 216.966L250.359 222.517L253.277 213.534L245.636 207.983H255.081L258 199Z" fill="white"/>
<path d="M81 327L83.9187 335.983H93.3637L85.7225 341.534L88.6412 350.517L81 344.966L73.3588 350.517L76.2775 341.534L68.6363 335.983H78.0813L81 327Z" fill="white"/>
<path d="M284 420L286.919 428.983H296.364L288.723 434.534L291.641 443.517L284 437.966L276.359 443.517L279.277 434.534L271.636 428.983H281.081L284 420Z" fill="white"/>
<path d="M426 260L428.919 268.983H438.364L430.723 274.534L433.641 283.517L426 277.966L418.359 283.517L421.277 274.534L413.636 268.983H423.081L426 260Z" fill="white"/>
<path d="M388 52L390.919 60.9828H400.364L392.723 66.5344L395.641 75.5172L388 69.9656L380.359 75.5172L383.277 66.5344L375.636 60.9828H385.081L388 52Z" fill="white"/>
</svg>
