<svg width="119" height="73" viewBox="0 0 119 73" fill="none" xmlns="http://www.w3.org/2000/svg">
<path d="M119 28.5L46.5 72L2 49L73.8881 7L119 28.5Z" fill="#95A187" fill-opacity="0.16"/>
<path d="M2 49.5V38L46 60L45.5 72.5L2 49.5Z" fill="#A99799"/>
<path d="M63.5 22.5L17 0L0 37L46.5 60.5L63.5 22.5Z" fill="#6A3C4D"/>
<path d="M63.7717 22.1266L17 0L35.189 15.8734L83 38L63.7717 22.1266Z" fill="#6A3C4D"/>
<path d="M81.5001 51L45.5001 72.5L46.0001 60L63.5001 23L81.5001 37.5V51Z" fill="#A99799"/>
<path d="M64.8656 42.5001C72.3655 38.0001 73.0001 56 73.0001 56L61.8657 62.5C61.8657 62.5 57.3656 47 64.8656 42.5001Z" fill="#968285"/>
</svg>
