<svg width="124" height="62" viewBox="0 0 124 62" fill="none" xmlns="http://www.w3.org/2000/svg">
<g filter="url(#filter0_f_5_33)">
<path d="M123 8L93.5 39.5L65.5 17.5L123 8Z" fill="#95A187" fill-opacity="0.16"/>
</g>
<path d="M50 61.5L40 56.5L0 34.5L36.5 9L50 14V61.5Z" fill="#8A7385"/>
<path d="M38.5784 25.0589C52.3637 32.465 40 56.5 40 56.5L9 39.5C9 39.5 24.7932 17.6529 38.5784 25.0589Z" fill="#A4623F"/>
<path d="M55 59L50 61.5V14L60 10.5L93.5 39.5L90 41.5L55 59Z" fill="#725C6C"/>
<path d="M58.4826 26.8992C68.6945 21.395 85 44 85 44L57.5 57.5C57.5 57.5 48.2707 32.4035 58.4826 26.8992Z" fill="#974325"/>
<path d="M39.5 8L50 0L60 10.5L50 14.5L39.5 8Z" fill="#974223"/>
<path d="M36.5 9L50 0V14.5L36.5 9Z" fill="#A96B48"/>
<defs>
<filter id="filter0_f_5_33" x="64.5" y="7" width="59.5" height="33.5" filterUnits="userSpaceOnUse" color-interpolation-filters="sRGB">
<feFlood flood-opacity="0" result="BackgroundImageFix"/>
<feBlend mode="normal" in="SourceGraphic" in2="BackgroundImageFix" result="shape"/>
<feGaussianBlur stdDeviation="0.5" result="effect1_foregroundBlur_5_33"/>
</filter>
</defs>
</svg>
