<svg width="117" height="73" viewBox="0 0 117 73" fill="none" xmlns="http://www.w3.org/2000/svg">
<g filter="url(#filter0_f_6_11)">
<path d="M88 53.056L114 37.556C114 37.556 120.648 27.3955 107.931 19.4444C95.2144 11.4933 72.6131 13.1416 72.6131 13.1416L44 27.056L71 66L79.5 57.5L88 53.056Z" fill="#95A187" fill-opacity="0.16"/>
</g>
<path d="M6 54L1 40L15 58.5L40.5 64.5L77.5 51L80.5 38V42L77.5 57L40.5 71L14.5 64L6 54Z" fill="#464247"/>
<path d="M14.5 64L6 54L1 40L15 58.5M14.5 64L15 58.5M14.5 64L40.5 71M15 58.5L40.5 64.5M40.5 71V64.5M40.5 71L77.5 57V51L40.5 64.5" stroke="#3F3A40" stroke-width="0.5"/>
<path d="M1 40L9 17L21.5 31L39 35L73.5 23L75 17L80.5 38L77.5 51L40.5 64.5L15 59L1 40Z" fill="#564F54"/>
<path d="M15 59L1 40L9 17L21.5 31M15 59L40.5 64.5M15 59L21.5 31M40.5 64.5L39 35M40.5 64.5L77.5 51M39 35L21.5 31M39 35L73.5 23M77.5 51L73.5 23M77.5 51L80.5 38L75 17L73.5 23" stroke="#696167" stroke-width="0.5"/>
<path d="M67.5 65.5L55 70.5C51 63.5 59.5 38 62 39C62 39 68 57 67.5 65.5Z" fill="#596F66"/>
<ellipse cx="42" cy="17.5" rx="33" ry="17.5" fill="#938A8D"/>
<path d="M50 70.5L53.5 73C53.5 73 53.9781 62.337 55.5 56C57.1871 48.975 62.3 39 62.3 39L61 38.5C52 51 50.3333 61.1667 50 70.5Z" fill="#AFA4A8"/>
<path d="M68.2002 68L66.5002 67C66.5002 67 67.0219 59.337 65.5 53C64.3653 48.275 62 39.5 62 39.5L61.0001 38.5L62.5001 38.8C68 50 69.5001 59.5 68.2002 68Z" fill="#AFA4A8"/>
<path d="M68.1905 68C69.9592 59.3043 64.8004 44.3768 62 38C62 38 72.9153 53.8967 70.7044 66.9402L68.1905 68Z" fill="#938A8D"/>
<path d="M56 72C54 62 59.8334 44.8333 63 37.5C63 37.5 51 58 53.5 73L56 72Z" fill="#938A8D"/>
<defs>
<filter id="filter0_f_6_11" x="43" y="12" width="73.737" height="55" filterUnits="userSpaceOnUse" color-interpolation-filters="sRGB">
<feFlood flood-opacity="0" result="BackgroundImageFix"/>
<feBlend mode="normal" in="SourceGraphic" in2="BackgroundImageFix" result="shape"/>
<feGaussianBlur stdDeviation="0.5" result="effect1_foregroundBlur_6_11"/>
</filter>
</defs>
</svg>
