<svg width="119" height="89" viewBox="0 0 119 89" fill="none" xmlns="http://www.w3.org/2000/svg">
<g filter="url(#filter0_f_3_45)">
<path d="M103 27.8694C132.909 53.5365 81.5 70.5 81.5 70.5L42.5 34.9549C42.5 34.9549 79.5 11 103 27.8694Z" fill="#95A187" fill-opacity="0.16"/>
</g>
<path d="M0 61.8374L46.5 88.8374V24.3374C15 19.8374 0 61.8374 0 61.8374Z" fill="#606074"/>
<line x1="35.7054" y1="37.48" x2="1.7054" y2="86.48" stroke="#9D8647" stroke-width="0.5"/>
<path d="M46.5 88.8374V24.3374C76.5 25.8375 87 68.3375 87 68.3375L46.5 88.8374Z" fill="#494D5B"/>
<path d="M77 48.3375L51.5 86.3375L55 35.3375C55 35.3375 66 37.3375 77 48.3375Z" fill="#545762"/>
<path d="M77 48.8375L85 69.3375L51.5 86.3375L77 48.8375Z" fill="#2D3843"/>
<path d="M73.5 53.8375L79 72.3375L59.5 82.3375L58 76.8375L73.5 53.8375Z" fill="#C6C7B9"/>
<defs>
<filter id="filter0_f_3_45" x="41.5" y="20.8519" width="71.8503" height="50.6482" filterUnits="userSpaceOnUse" color-interpolation-filters="sRGB">
<feFlood flood-opacity="0" result="BackgroundImageFix"/>
<feBlend mode="normal" in="SourceGraphic" in2="BackgroundImageFix" result="shape"/>
<feGaussianBlur stdDeviation="0.5" result="effect1_foregroundBlur_3_45"/>
</filter>
</defs>
</svg>
