<svg width="103" height="65" viewBox="0 0 103 65" fill="none" xmlns="http://www.w3.org/2000/svg">
<path d="M103 29.5L47.5 64L0.5 38.5L54.8881 8L103 29.5Z" fill="#95A187" fill-opacity="0.16"/>
<path d="M47.5 64.1464L0 37.6464L33.5 16L79.5 44L47.5 64.1464Z" fill="#2A5A5C"/>
<path d="M46.5 61L74.5 43.6464L63 21.6464L46.5 61Z" fill="#68815E"/>
<path d="M46.7506 61.084L5.03494 37.679L19.4732 0.218937L63.1963 21.6461L46.7506 61.084Z" fill="#4F725F"/>
<path d="M68 43C68 46.7089 65.6558 49.5 63 49.5C61.6755 49.5 60.5682 48.824 59.773 47.6666C58.9717 46.5003 58.5 44.8549 58.5 43C58.5 41.1438 58.9725 39.3644 59.7848 38.0654C60.596 36.7682 61.7067 36 63 36C64.307 36 65.5472 36.7834 66.4824 38.0911C67.4148 39.3949 68 41.1674 68 43Z" fill="#44604F" stroke="#6B836B"/>
</svg>
