<svg width="72" height="81" viewBox="0 0 72 81" fill="none" xmlns="http://www.w3.org/2000/svg">
<path d="M35.7 0C8.78945 17.2231 -4.72456 61.4638 35.7 61.4638C76.1245 61.4638 62.6105 17.2231 35.7 0Z" fill="#FF9601"/>
<path d="M35.9496 53.1802C16.9574 53.1802 30.3637 29.0235 35.9496 26.0039C41.5355 29.0235 54.9417 53.1802 35.9496 53.1802Z" fill="#FFC803"/>
<path d="M35.9496 53.1802C25.1502 53.5576 22.026 42.8092 25.1502 36.5725C27.3672 42.4407 37.3788 47.6443 35.9496 53.1802Z" fill="#FFC803"/>
<path d="M39.8182 52.4788C50.3049 49.8368 47.6976 40.1362 44.8347 32.3834C41.8722 37.8624 36.9444 47.5533 39.8182 52.4788Z" fill="#FFC803"/>
<ellipse cx="35.5064" cy="5.92138" rx="35.5064" ry="5.92138" transform="matrix(0.962304 0.271975 -0.279679 0.960093 3.48804 50.2349)" fill="#65493C"/>
<ellipse cx="35.5215" cy="5.91881" rx="35.5215" ry="5.91881" transform="matrix(0.976555 -0.215267 0.221555 0.975148 0 67.4517)" fill="#65493C"/>
</svg>
