<svg width="112" height="81" viewBox="0 0 112 81" fill="none" xmlns="http://www.w3.org/2000/svg">
<g filter="url(#filter0_f_9_3)">
<path d="M98 30C126.381 46.4205 74.3808 69.5512 74.3808 69.5512L35.3808 34.0061C35.3808 34.0061 69.6192 13.5795 98 30Z" fill="#95A187" fill-opacity="0.16"/>
</g>
<path d="M52.5 33.5C45.89 23.9493 89.0247 61.8842 89.0247 61.8842L58 80.5C58 80.5 59.11 43.0506 52.5 33.5Z" fill="#494436"/>
<path d="M48.5346 29.6884C75.0226 43.2347 56.148 79.6269 56.148 79.6269L0.0941826 51.0491C0.0941826 51.0491 22.0466 16.142 48.5346 29.6884Z" fill="#494436"/>
<path d="M49.4698 30.2971C75.9916 43.7774 58.2275 80.5792 58.2275 80.5792L2.10251 52.1413C2.10251 52.1413 22.9481 16.8169 49.4698 30.2971Z" fill="#5B5345"/>
<path d="M43.0919 41.0475C61.6453 51.4909 42.3499 75.5325 42.3499 75.5325L12.717 59.4353C12.717 59.4353 24.5385 30.6041 43.0919 41.0475Z" fill="#494436"/>
<path d="M10.6639 60.5654C10.651 59.522 12.2093 56.5 12.2093 56.5L46.2246 74.3448C46.2246 74.3448 44.6792 78.4102 44.1512 78.4167C43.6232 78.4232 10.6767 61.6089 10.6639 60.5654Z" fill="#494436"/>
<path d="M42.4554 44.0545C58.3474 53.0154 41.2025 74.7412 41.2025 74.7412L15.1742 60.6057C15.1742 60.6057 26.5634 35.0935 42.4554 44.0545Z" fill="#5B5345"/>
<path d="M15.0001 61.1206L15.5001 60.1206L41.0001 74.1206V75.1206L15.0001 61.1206Z" fill="#5B5345"/>
<path d="M40.4173 47.121C53.1647 53.9967 39.2892 72.6839 39.2892 72.6839L18.4089 61.8726C18.4089 61.8726 27.6699 40.2453 40.4173 47.121Z" fill="#494436"/>
<path d="M42.4016 47.6964C52.9765 53.1432 40.8251 72.0217 40.8251 72.0217L23.5188 63.4532C23.5188 63.4532 31.8268 42.2496 42.4016 47.6964Z" fill="#5B5345"/>
<defs>
<filter id="filter0_f_9_3" x="34.3808" y="22.6132" width="73.0938" height="47.938" filterUnits="userSpaceOnUse" color-interpolation-filters="sRGB">
<feFlood flood-opacity="0" result="BackgroundImageFix"/>
<feBlend mode="normal" in="SourceGraphic" in2="BackgroundImageFix" result="shape"/>
<feGaussianBlur stdDeviation="0.5" result="effect1_foregroundBlur_9_3"/>
</filter>
</defs>
</svg>
